<?xml version="1.0" encoding="utf-8"?>
<!-- Generator: Adobe Illustrator 23.1.1, SVG Export Plug-In . SVG Version: 6.00 Build 0)  -->
<svg version="1.1" id="Layer_1" xmlns="http://www.w3.org/2000/svg" xmlns:xlink="http://www.w3.org/1999/xlink" x="0px" y="0px"
	 viewBox="0 0 144 144" style="enable-background:new 0 0 144 144;" xml:space="preserve">
<g>
	<path d="M136.27,84.84C134.99,23.2,83.8,0.59,66.21,0.59C61.83,1.86,53.33,9.27,50.86,12c0.02,0,0.04,0.01,0.05,0.01
		c-0.02,0.02-0.04,0.04-0.05,0.06c33.8,4,58.78,29,58.31,63.61c-0.01,0.74-0.62,1.34-1.39,1.34H47.81c0,0.02,0.01,0.04,0.01,0.06
		h-0.01c0.42,2.56,0.83,5.29,1.81,7.83h81.19h5.46C136.27,84.89,136.27,84.87,136.27,84.84L136.27,84.84z"/>
	<path d="M34.53,67.72c0.01-0.74,0.62-1.34,1.39-1.34h59.96c0-0.02-0.01-0.04-0.01-0.06h0.01c-0.42-2.75-0.83-5.29-1.81-7.83H12.88
		H7.43c0,0.02,0,0.04,0,0.06h0c1.28,61.65,52.47,84.27,70.06,84.27c4.37-1.28,12.88-8.68,15.35-11.41c-0.02,0-0.04-0.01-0.05-0.01
		c0.02-0.02,0.04-0.04,0.05-0.06C59.04,127.33,34.06,102.32,34.53,67.72z"/>
	<path d="M54.19,95.62c0.02,0.02,0.03,0.04,0.05,0.07h-0.05c1.78,2.44,3.91,5.08,6,6.93h45.79c1.26-2.02,2.29-6.02,2.46-6.93h-0.01
		c0-0.02,0.01-0.05,0.01-0.07H54.19z"/>
	<path d="M72.42,113.52c0.03,0.02,0.07,0.04,0.1,0.06h-0.1c6.2,4.05,21.23,6.7,26.11,7.12c0.9-1.11,2.84-4.38,4.02-7.12h-0.03
		c0.01-0.02,0.02-0.04,0.03-0.06H72.42z"/>
	<path d="M89.51,47.77c-0.02-0.02-0.03-0.04-0.05-0.07h0.05c-1.78-2.43-3.91-5.08-6-6.93H37.73c-1.27,2.02-2.29,6.02-2.47,6.93h0.01
		c0,0.02-0.01,0.05-0.01,0.07H89.51z"/>
	<path d="M71.27,29.87c-0.03-0.02-0.07-0.04-0.1-0.06h0.1c-6.2-4.04-21.23-6.7-26.11-7.12c-0.9,1.11-2.83,4.38-4.02,7.12h0.03
		c-0.01,0.02-0.02,0.04-0.03,0.06H71.27z"/>
</g>
</svg>
